<svg height="87" viewBox="0 0 199 87" width="199" xmlns="http://www.w3.org/2000/svg"><g fill="none" fill-rule="evenodd"><path d="m191.72 1c1.92001 0 3.479994.6399936 4.68 1.92s1.8 2.8799904 1.8 4.8v69.96c0 2.0800104-.699993 3.819993-2.1 5.22s-3.13999 2.1-5.22 2.1c-1.120006 0-2.219995-.1799982-3.3-.54s-1.859998-.8599968-2.34-1.5l-44.04-55.92v51.24c0 1.9200096-.619994 3.5199936-1.86 4.8s-2.85999 1.92-4.86 1.92c-1.92001 0-3.479994-.6399936-4.68-1.92s-1.8-2.8799904-1.8-4.8v-69.96c0-2.0800104.699993-3.819993 2.1-5.22s3.13999-2.1 5.22-2.1c1.200006 0 2.379994.2399976 3.54.72s2.019997 1.119996 2.58 1.92l43.68 55.68v-51.6c0-1.9200096.619994-3.5199936 1.86-4.8s2.81999-1.92 4.74-1.92z" fill="#000"/><path d="m110 77.68c0 2.0800104-.759992 3.819993-2.28 5.22s-3.27999 2.1-5.28 2.1c-2.160011 0-3.939993-.699993-5.34-2.1s-2.1-3.1399896-2.1-5.22v-69.36c0-2.0800104.7199928-3.819993 2.16-5.22s3.279989-2.1 5.52-2.1c2.00001 0 3.719993.699993 5.16 2.1s2.16 3.1399896 2.16 5.22z" fill="#000"/><path d="m80.16 43.2c0 8.400042-1.699983 15.8799672-5.1 22.44s-8.1399696 11.6599818-14.22 15.3-12.9999612 5.46-20.76 5.46-14.6799696-1.8199818-20.76-5.46-10.819983-8.7399672-14.22-15.3-5.1-14.039958-5.1-22.44 1.699983-15.8799672 5.1-22.44 8.1399696-11.6599818 14.22-15.3 12.9999612-5.46 20.76-5.46 14.6799696 1.8199818 20.76 5.46 10.819983 8.7399672 14.22 15.3 5.1 14.039958 5.1 22.44zm-5.04 0c0-7.5200376-1.4799852-14.1999708-4.44-20.04s-7.0999734-10.359984-12.42-13.56-11.379966-4.8-18.18-4.8-12.8599734 1.599984-18.18 4.8-9.4599852 7.7199708-12.42 13.56-4.44 12.5199624-4.44 20.04 1.4799852 14.1999708 4.44 20.04 7.0999734 10.359984 12.42 13.56 11.379966 4.8 18.18 4.8 12.8599734-1.599984 18.18-4.8 9.4599852-7.7199708 12.42-13.56 4.44-12.5199624 4.44-20.04z" fill="#689f38"/></g></svg>